<svg width="80" height="80" viewBox="0 0 80 80" fill="none" xmlns="http://www.w3.org/2000/svg">
<path d="M35.4763 55.3806C27.0985 55.3806 21.0005 49.9522 21.0005 41.8095C20.9824 41.3445 21.442 40.9048 21.9053 40.9048H46.3332C49.9521 40.9048 50.1982 36.4408 50.1982 36.4408C47.7192 33.1367 50.5185 31.0576 50.5185 31.0576C50.5185 31.0576 55.0223 31.51 54.1954 35.6428C56.4427 34.691 58.14 35.0005 58.9995 37.284C58.14 39.573 55.4656 40.798 53.2164 39.8426C53.2164 48.5136 44.1455 55.3806 35.4763 55.3806Z" stroke="white" stroke-width="2" stroke-linecap="round" stroke-linejoin="round"/>
<path d="M40.0001 40.9044H45.4286V35.476H40.0001M40.0001 40.9044V35.476M40.0001 40.9044H34.5717M40.0001 35.476H34.5717M40.0001 35.476V30.0476M34.5717 40.9044V35.476M34.5717 40.9044H29.1433M34.5717 35.476H29.1433M34.5717 35.476V30.0476M29.1433 40.9044V35.476M29.1433 40.9044H23.7148V35.476H29.1433M29.1433 35.476V30.0476H34.5717M40.0001 30.0476H34.5717M40.0001 30.0476V24.6191H34.5717V30.0476" stroke="white" stroke-width="2" stroke-linejoin="round"/>
</svg>
