<svg width="80" height="80" viewBox="0 0 80 80" fill="none" xmlns="http://www.w3.org/2000/svg">
<path d="M55.9714 39.7193C55.9687 38.647 55.6116 37.6056 54.9555 36.7574C54.2995 35.9092 53.3814 35.3017 52.3442 35.0295L56.9997 21.3027H33.9292L38.5972 35.0731C37.59 35.3677 36.7052 35.9804 36.075 36.8195C35.4448 37.6587 35.103 38.6792 35.1009 39.7286C35.1027 40.5026 35.2893 41.2648 35.6451 41.9521C36.001 42.6394 36.5157 43.2317 37.1466 43.6799C36.6494 44.3805 36.0836 45.0298 35.4577 45.6182C34.3068 46.7163 32.9588 47.587 31.4845 48.1844C30.1851 47.3072 29.6226 45.76 30.1306 44.3733C31.236 44.0299 32.182 43.3022 32.7973 42.3219C33.4127 41.3415 33.6568 40.1732 33.4855 39.0285C33.3141 37.8837 32.7387 36.8381 31.8632 36.0809C30.9878 35.3237 29.8702 34.9048 28.7127 34.9001C27.4268 34.9018 26.1941 35.4133 25.2848 36.3226C24.3756 37.2318 23.864 38.4646 23.8624 39.7505C23.8624 41.0717 24.403 42.2839 25.2693 43.1502C25.1946 43.2998 25.1187 43.4551 25.0419 43.6161C24.3174 45.1103 23.4947 46.7992 23.18 48.6939C22.552 52.4831 23.5804 55.5245 26.0609 57.2462C27.4037 58.1924 29.0067 58.6992 30.6494 58.6968C33.496 58.6968 36.3863 57.268 39.1799 55.8813C41.1727 54.8966 43.2294 53.8683 45.2533 53.3697C46.0012 53.1858 46.7803 53.0783 47.6029 52.9583C49.2701 52.72 50.9918 52.4722 52.5389 51.5716C53.4226 51.0655 54.1849 50.3721 54.7722 49.5401C55.3595 48.7082 55.7576 47.7578 55.9387 46.7556C56.2098 45.2069 55.9387 43.6488 55.2469 42.2839C55.7112 41.536 55.9714 40.6619 55.9714 39.7193ZM53.8602 39.7193C53.8602 41.2228 52.6371 42.4459 51.1336 42.4459C50.5673 42.4444 50.0156 42.2669 49.5547 41.938C49.0938 41.6091 48.7465 41.1451 48.5609 40.6102C48.3752 40.0753 48.3604 39.4959 48.5184 38.9522C48.6765 38.4085 48.9996 37.9274 49.443 37.5754L49.4539 37.5645C49.5422 37.499 49.6357 37.4341 49.7344 37.3697C49.7344 37.3697 49.7469 37.3697 49.7469 37.3588C49.7905 37.337 49.8326 37.3043 49.8762 37.2809C49.8871 37.2809 49.898 37.2715 49.9089 37.2715C49.9546 37.2497 50.005 37.2279 50.06 37.2061C50.1161 37.1853 50.167 37.164 50.2127 37.1422C50.2236 37.1422 50.233 37.1313 50.2439 37.1313C50.2875 37.1204 50.3311 37.0986 50.3748 37.0877C50.3857 37.0877 50.4059 37.0768 50.4184 37.0768C50.4714 37.0659 50.515 37.055 50.5695 37.0456H50.5804L50.7425 37.0113C50.7534 37.0113 50.7736 37.0113 50.7861 37.0004C50.8297 37.0004 50.8718 36.9895 50.9154 36.9895H50.97C51.0245 36.9895 51.079 36.9786 51.1429 36.9786H51.2831C51.3268 36.9786 51.361 36.9786 51.4031 36.9895H51.4249C51.5111 36.9989 51.5979 37.0134 51.6851 37.0332C52.2998 37.1649 52.8508 37.5031 53.2466 37.9915C53.6423 38.4799 53.8588 39.0907 53.8602 39.7193ZM36.9503 23.4685H53.9802L50.0709 34.9983C49.9089 35.0295 49.7469 35.084 49.5848 35.1385L45.4715 26.7482L41.3457 35.084C41.1836 35.031 41.0091 34.9983 40.8362 34.9656L36.9503 23.4685ZM44.6909 38.7767C44.49 37.7779 43.9784 36.8683 43.2294 36.1778L45.4699 31.6531L47.7323 36.2759C47.0623 36.9459 46.5746 37.8029 46.3798 38.7767H44.6909ZM39.2672 37.0659C39.3202 37.055 39.3638 37.0441 39.4183 37.0347H39.4495C39.4947 37.0223 39.5367 37.0223 39.5804 37.0113H39.624C39.6676 37.0113 39.7003 37.0004 39.7424 37.0004H40.1646C40.2083 37.0004 40.241 37.0113 40.2737 37.0113C40.2955 37.0113 40.3049 37.0113 40.3282 37.0223C40.3703 37.0332 40.403 37.0332 40.4466 37.0441C40.456 37.042 40.4705 37.0456 40.4903 37.055L40.6414 37.0861H40.6523C40.6959 37.0965 40.739 37.1116 40.7816 37.1313C40.7925 37.1313 40.8034 37.1422 40.8253 37.1422C40.858 37.1531 40.9016 37.164 40.9343 37.1843C40.9452 37.1843 40.9561 37.1952 40.9655 37.1952C41.0091 37.217 41.0527 37.2279 41.0964 37.2497H41.1073C41.1571 37.2691 41.2042 37.2947 41.2475 37.3261H41.2584C41.302 37.3479 41.3457 37.3791 41.3893 37.4009C41.4002 37.4009 41.4002 37.4118 41.4095 37.4118C41.4532 37.4336 41.4874 37.4663 41.5295 37.4881L41.5404 37.499C41.6697 37.5956 41.7897 37.7047 41.9081 37.8122L41.919 37.8231C42.4011 38.3316 42.6689 39.0062 42.6669 39.7068C42.643 40.4144 42.3451 41.0851 41.8361 41.5772C41.327 42.0693 40.6467 42.3444 39.9387 42.3444C39.2307 42.3444 38.5504 42.0693 38.0414 41.5772C37.5323 41.0851 37.2344 40.4144 37.2105 39.7068C37.2083 39.0999 37.4097 38.5099 37.7826 38.031C38.1555 37.5522 38.6782 37.2124 39.2672 37.0659ZM28.613 36.9895C30.1181 36.9895 31.3412 38.2142 31.3412 39.7177C31.3412 41.2213 30.1181 42.4459 28.6146 42.4459C27.111 42.4459 25.8848 41.2228 25.8848 39.7193C25.8848 38.2157 27.1094 36.9895 28.613 36.9895ZM53.7963 46.377C53.6732 47.0696 53.3988 47.7266 52.9926 48.3011C52.5865 48.8755 52.0587 49.3533 51.4467 49.7004C50.2657 50.3828 48.8151 50.5994 47.2882 50.816C46.4295 50.9253 45.5768 51.0766 44.7329 51.2694C42.4815 51.8225 40.3173 52.9054 38.217 53.9446C35.5309 55.2752 32.9974 56.531 30.6494 56.531C29.4454 56.538 28.2703 56.1626 27.2933 55.4591C24.911 53.8137 25.0294 50.7287 25.3114 49.0398C25.5716 47.4583 26.2961 45.9766 26.9895 44.5571C27.0331 44.4715 27.0658 44.3951 27.1094 44.3079C27.3463 44.3951 27.595 44.4605 27.8558 44.5042C27.4444 46.7992 28.613 49.1691 30.8878 50.3392L31.2991 50.5558L31.7416 50.3937C33.6363 49.7222 35.3907 48.6284 36.9394 47.1669C37.795 46.3698 38.551 45.4721 39.1908 44.4933C39.4401 44.5353 39.6894 44.5462 39.9387 44.5462C41.0103 44.543 42.0508 44.1857 42.8983 43.53C43.7459 42.8743 44.3531 41.957 44.6254 40.9206H46.4437C46.7138 41.9588 47.3208 42.8781 48.1695 43.5342C49.0183 44.1904 50.0608 44.5463 51.1336 44.5462C52.031 44.5462 52.863 44.2969 53.5797 43.8763C53.8602 44.6865 53.9475 45.5325 53.7963 46.377Z" fill="white"/>
</svg>
