<svg width="81" height="80" viewBox="0 0 81 80" fill="none" xmlns="http://www.w3.org/2000/svg">
<path d="M55.044 25L51.4077 51.3636L40.4986 55L29.5895 51.3636L25.9531 25H55.044Z" stroke="white" stroke-width="2" stroke-linecap="round" stroke-linejoin="round"/>
<path d="M32.3164 32.2725H37.771V46.8179L34.1346 44.9997M48.68 32.2725H44.1346C43.8935 32.2725 43.6623 32.3682 43.4918 32.5387C43.3213 32.7092 43.2255 32.9404 43.2255 33.1816V38.6361C43.2255 38.8772 43.3213 39.1084 43.4918 39.2789C43.6623 39.4494 43.8935 39.5452 44.1346 39.5452H46.7219C46.852 39.5452 46.9806 39.5732 47.099 39.6272C47.2174 39.6812 47.3228 39.76 47.4081 39.8582C47.4934 39.9564 47.5567 40.0719 47.5935 40.1967C47.6304 40.3215 47.6401 40.4527 47.6219 40.5816L46.8619 45.9088L43.2255 46.8179" stroke="white" stroke-width="2" stroke-linecap="round" stroke-linejoin="round"/>
</svg>
