<svg width="81" height="80" viewBox="0 0 81 80" fill="none" xmlns="http://www.w3.org/2000/svg">
<path d="M38.7734 20.9502C39.831 20.34 41.1342 20.3408 42.1914 20.9512L47.6211 24.0859C48.175 24.4057 48.5235 24.9981 48.5195 25.6484C48.5191 25.7182 48.5134 25.7874 48.5049 25.8555C49.404 25.5833 50.3887 25.6894 51.2197 26.1748L55.8057 28.8535C56.8549 29.4664 57.4999 30.5905 57.5 31.8057V37.2529C57.4999 38.369 56.9546 39.4052 56.0537 40.042C56.1786 40.0871 56.301 40.1434 56.418 40.2119C57.0884 40.6048 57.4999 41.3235 57.5 42.1006V48.2529C57.4998 49.4737 56.849 50.602 55.792 51.2129L50.3125 54.3799C49.8109 54.6698 49.1926 54.6687 48.6914 54.3779C48.6481 54.3528 48.6077 54.3236 48.5674 54.2949C48.3417 55.1739 47.773 55.9408 46.9668 56.4062L42.3877 59.0498C41.33 59.6604 40.0264 59.6603 38.9688 59.0498L34.3896 56.4062C33.4678 55.8741 32.8545 54.9486 32.7119 53.9111C32.6402 53.9672 32.5645 54.0192 32.4844 54.0654C31.8739 54.4177 31.1219 54.4172 30.5117 54.0645L25.21 51C24.1532 50.389 23.502 49.2607 23.502 48.04V41.8896C23.502 41.1107 23.9165 40.3897 24.5898 39.998C24.7053 39.9309 24.8261 39.8764 24.9492 39.832C24.0465 39.1955 23.5001 38.1574 23.5 37.04V31.5869C23.5 30.3784 24.1379 29.2587 25.1787 28.6436C26.7093 27.7389 28.244 26.8356 29.7871 25.9453C30.5918 25.481 31.5364 25.3748 32.4053 25.6182L32.3994 25.5195L32.4131 25.3174C32.4753 24.8499 32.7504 24.4324 33.165 24.1924L38.7734 20.9502ZM47.2236 45.2314C47.2458 45.2394 47.2681 45.2472 47.29 45.2559C47.2895 45.2318 47.2895 45.2077 47.29 45.1836C47.2681 45.1998 47.246 45.2157 47.2236 45.2314ZM34.041 45.1689C34.0413 45.1878 34.0414 45.2067 34.041 45.2256C34.0582 45.2188 34.0755 45.2124 34.0928 45.2061C34.0756 45.1936 34.058 45.1817 34.041 45.1689Z" stroke="white" stroke-width="2"/>
</svg>
