<svg width="81" height="80" viewBox="0 0 81 80" fill="none" xmlns="http://www.w3.org/2000/svg">
<path d="M58.462 44.2302C58.4409 44.1643 58.4111 44.1016 58.3734 44.0437C58.1559 43.6345 57.6343 43.5149 56.8087 43.6848C54.2388 44.2131 53.2443 43.8868 52.8839 43.6537C54.9691 40.4715 56.6829 36.6275 57.6089 33.0413C58.0316 31.4099 58.8489 27.5673 57.7985 25.6919C57.7317 25.5631 57.6537 25.4404 57.5654 25.3252C55.561 22.7677 52.6197 21.3926 49.0616 21.3553C46.7386 21.3304 44.7576 21.8929 44.2199 22.0996C43.9539 22.0501 43.6865 22.0076 43.4182 21.9721C42.7453 21.8504 42.0634 21.7844 41.3796 21.7748C39.543 21.7453 37.9566 22.185 36.6406 23.08C35.3105 22.5812 29.2026 20.524 25.4222 23.2027C23.3075 24.699 22.3348 27.3716 22.5229 31.1488C22.5866 32.4198 23.3106 36.3291 24.4542 40.0738C25.169 42.4148 25.9111 44.27 26.6808 45.6394C27.5405 47.186 28.4283 48.1131 29.344 48.4207C30.0401 48.6507 31.1044 48.6429 32.2309 47.288C33.2081 46.1192 34.2158 44.9763 35.253 43.8604C35.9289 44.2255 36.6608 44.4228 37.4128 44.4461V44.4524C37.2821 44.608 37.1541 44.766 37.029 44.9263C36.5023 45.5944 36.392 45.7342 34.6983 46.0838C34.2167 46.1833 32.9363 46.4459 32.9177 47.3439C32.9149 47.5234 32.964 47.6998 33.0591 47.852C33.4118 48.5093 34.4917 48.7998 34.6362 48.8356C36.7105 49.353 38.5284 48.9785 39.8756 47.7806C39.8491 51.2471 39.9952 54.6452 40.4116 55.6862C40.755 56.5455 41.5956 58.6446 44.2495 58.6446C44.6379 58.6457 45.0673 58.597 45.5376 58.4986C48.3064 57.905 49.509 56.6807 49.9736 53.9833C50.2067 52.6315 50.5982 49.5161 50.8111 47.6112C50.8375 47.5024 50.8671 47.4247 50.8997 47.3999C50.8997 47.3999 51.0084 47.3253 51.5632 47.4465L51.6315 47.4574L52.0262 47.4916L52.0495 47.4931C53.3655 47.5537 55.0188 47.2725 55.9821 46.825C56.9828 46.3588 58.7898 45.2199 58.462 44.2302ZM25.5372 39.8065C24.3812 36.0231 23.7068 32.2163 23.654 31.1504C23.4846 27.7755 24.3019 25.4278 26.081 24.1692C28.9353 22.1508 33.6014 23.3302 35.5716 23.9672L35.556 23.9827C32.4127 27.1556 32.4873 32.5814 32.4982 32.9139C32.4982 33.0413 32.5075 33.2231 32.523 33.4733C32.5759 34.3838 32.6784 36.0836 32.4081 38.0072C32.1594 39.7941 32.7095 41.5437 33.9199 42.8069C34.0442 42.9374 34.1747 43.0602 34.3114 43.1751C33.7723 43.7516 32.6023 45.0288 31.3546 46.5282C30.472 47.5879 29.8629 47.3843 29.6641 47.3175C29.055 47.1155 28.4008 46.4055 27.7389 45.2634C26.9931 43.9598 26.2426 42.1061 25.5403 39.8065M34.8739 47.7122C34.6378 47.6533 34.4117 47.5602 34.2027 47.4356C34.341 47.375 34.5709 47.2958 34.9532 47.2181C36.9482 46.8063 37.2559 46.5173 37.9287 45.6643C38.1104 45.4281 38.3006 45.1985 38.4989 44.976C38.5496 44.9165 38.5886 44.8479 38.6139 44.774C38.878 44.5394 39.0365 44.6031 39.2913 44.7087C39.5337 44.8097 39.7699 45.1127 39.8662 45.4468C39.9128 45.6053 39.9626 45.9051 39.7963 46.1382C38.3917 48.1053 36.3438 48.0804 34.8739 47.7122ZM38.1275 41.5157L38.0467 41.7332C37.8401 42.2879 37.6474 42.8038 37.5278 43.2932C36.4914 43.2901 35.4814 42.8457 34.7154 42.0455C33.7396 41.0278 33.2968 39.6123 33.4988 38.1611C33.7832 36.1287 33.679 34.3589 33.6231 33.408L33.6029 33.0662C34.0628 32.6591 36.1915 31.5186 37.7096 31.8667C38.4026 32.0252 38.8252 32.4975 38.9992 33.3086C39.9082 37.51 39.1204 39.2596 38.4865 40.6673C38.3581 40.9461 38.2389 41.2291 38.1291 41.5157M49.5712 48.6196C49.5463 48.8951 49.5142 49.2038 49.4749 49.5457L49.248 50.2262C49.231 50.2806 49.2216 50.3371 49.22 50.394C49.2107 51.1321 49.1361 51.4024 49.0414 51.7458C48.8871 52.2811 48.7933 52.832 48.7617 53.3882C48.5908 55.5852 47.3974 56.8485 45.0062 57.3597C42.6522 57.8647 42.2342 56.589 41.8675 55.4625C41.8291 55.3442 41.7887 55.2267 41.7463 55.1098C41.4123 54.1993 41.4511 52.9158 41.5024 51.1399C41.5272 50.2682 41.4635 48.1861 40.9896 47.0285C40.9958 46.5728 41.0057 46.1108 41.0191 45.6426C41.0193 45.5831 41.0109 45.524 40.9943 45.467C40.9772 45.3581 40.9544 45.2502 40.9259 45.1438C40.7364 44.4788 40.2733 43.9225 39.714 43.691C39.4933 43.5993 39.0878 43.4315 38.5999 43.5558C38.704 43.127 38.8842 42.6437 39.08 42.1186L39.1624 41.8979C39.2556 41.6493 39.3706 41.3929 39.4933 41.121C40.1552 39.648 41.0627 37.6312 40.0775 33.0755C39.7093 31.3695 38.4771 30.5366 36.6095 30.7293C35.4908 30.8458 34.4653 31.298 33.9541 31.5559C33.8516 31.6079 33.75 31.6618 33.6495 31.7175C33.7925 29.999 34.3316 26.7858 36.3469 24.7534C36.4964 24.6025 36.6535 24.4594 36.8177 24.3246C36.8994 24.3091 36.9765 24.2751 37.043 24.2251C38.2114 23.3395 39.6767 22.9044 41.3967 22.9308C42.0348 22.9412 42.6429 22.9831 43.2209 23.0567C46.2352 23.6083 48.2614 25.305 49.492 26.7594C50.7567 28.2541 51.442 29.7597 51.7154 30.5724C49.6598 30.3642 48.2614 30.7697 47.5513 31.7843C46.0099 33.9876 48.3965 38.2667 49.5432 40.3239C49.753 40.7 49.9348 41.0262 49.9923 41.163C50.3652 42.0688 50.8484 42.6733 51.2011 43.1145C51.3099 43.2497 51.4155 43.3802 51.4948 43.4952C50.8733 43.6755 49.7545 44.0903 49.8555 46.1631C49.817 46.5857 49.7735 47.0078 49.725 47.4294C49.6535 47.7526 49.6178 48.1441 49.5712 48.6196ZM50.9525 46.1009C50.8904 44.8082 51.372 44.673 51.8801 44.5316L52.0899 44.4679C52.1546 44.527 52.2243 44.5806 52.2981 44.6279C53.1838 45.2122 54.7577 45.2821 56.9703 44.8361C56.6565 45.1112 56.1639 45.4577 55.4896 45.77C54.8525 46.0652 53.7866 46.2874 52.7751 46.3355C51.6564 46.3884 51.0877 46.2112 50.9525 46.1009ZM51.8382 31.6958C51.8212 32.2174 51.7667 32.7372 51.675 33.2511C51.5896 33.8073 51.501 34.3822 51.4777 35.0799C51.4559 35.7574 51.5398 36.4628 51.6222 37.1464C51.7885 38.5246 51.9578 39.9433 51.3006 41.3432C51.1926 41.1492 51.0951 40.9495 51.0084 40.745C50.8541 40.4183 50.6856 40.0984 50.5035 39.7863C49.5463 38.0709 47.3073 34.0528 48.4525 32.4152C49.0429 31.5714 50.5377 31.5357 51.8382 31.6958ZM52.1924 42.5925L52.0604 42.4262L52.006 42.3578C53.134 40.4933 52.9134 38.649 52.7161 37.0144C52.6353 36.3431 52.5607 35.7092 52.5793 35.1156C52.5995 34.4832 52.6819 33.9425 52.7627 33.4189C52.8621 32.7741 52.9647 32.1075 52.9351 31.3213C52.957 31.2245 52.9633 31.1248 52.9538 31.0261C52.8823 30.2709 52.0215 28.0148 50.2657 25.9716C49.1215 24.6229 47.696 23.541 46.0892 22.8019C47.1232 22.591 48.1773 22.4941 49.2325 22.5129C52.4208 22.5843 54.9426 23.7776 56.7279 26.0602C56.7657 26.1098 56.8005 26.1617 56.832 26.2155C57.9554 28.3225 56.4048 35.9656 52.1924 42.5925ZM38.4927 33.0895C38.4538 33.3692 38.011 33.7467 37.5278 33.7467L37.4019 33.7374C37.0866 33.6816 36.805 33.5063 36.6157 33.248C36.5442 33.1548 36.4293 32.9714 36.451 32.8052C36.4579 32.7587 36.4743 32.7142 36.4992 32.6744C36.524 32.6345 36.5568 32.6002 36.5955 32.5736C36.7789 32.4354 37.1424 32.3841 37.5433 32.44C38.0343 32.5084 38.5409 32.7399 38.4911 33.0895M50.8127 32.4509C50.8298 32.5752 50.7365 32.7616 50.5749 32.9326C50.4078 33.115 50.1848 33.2369 49.941 33.2791L49.8245 33.2868C49.3692 33.2868 48.9839 32.9232 48.9543 32.7104C48.917 32.4354 49.3645 32.2287 49.8245 32.1634C50.2875 32.0982 50.7754 32.1774 50.8127 32.4509Z" fill="white"/>
</svg>
