<svg width="81" height="80" viewBox="0 0 81 80" fill="none" xmlns="http://www.w3.org/2000/svg">
<path d="M38.9492 43.1025H42.0513M42.0513 43.1025H45.1533M42.0513 43.1025V50.8576M53.6839 43.1025H50.5818C50.1705 43.1025 49.776 43.2659 49.4851 43.5568C49.1942 43.8477 49.0308 44.2422 49.0308 44.6536V45.4291C49.0308 45.8404 49.1942 46.2349 49.4851 46.5258C49.776 46.8167 50.1705 46.9801 50.5818 46.9801H52.1329C52.5442 46.9801 52.9387 47.1435 53.2296 47.4344C53.5205 47.7252 53.6839 48.1197 53.6839 48.5311V49.3066C53.6839 49.718 53.5205 50.1125 53.2296 50.4033C52.9387 50.6942 52.5442 50.8576 52.1329 50.8576H49.0308" stroke="white" stroke-width="2" stroke-linecap="round" stroke-linejoin="round"/>
<path d="M45.9286 55.5106H39.3011C34.2448 55.5106 31.7135 55.5106 29.9578 54.2729C29.4581 53.9225 29.0115 53.502 28.6317 53.0243C27.3164 51.3709 27.3164 48.9917 27.3164 44.23V40.2827C27.3164 35.687 27.3164 33.3884 28.0438 31.5536C29.2133 28.602 31.6856 26.2755 34.8218 25.1742C36.7699 24.4902 39.2096 24.4902 44.0953 24.4902C46.884 24.4902 48.28 24.4902 49.3936 24.8811C51.185 25.5108 52.598 26.84 53.2665 28.526C53.6821 29.5745 53.6821 30.8882 53.6821 33.5141V38.4494" stroke="white" stroke-width="2" stroke-linecap="round" stroke-linejoin="round"/>
<path d="M27.3164 40.0004C27.3164 38.6294 27.8611 37.3145 28.8305 36.345C29.8 35.3755 31.1149 34.8309 32.4859 34.8309C33.5189 34.8309 34.7365 35.0108 35.74 34.7425C36.1785 34.6245 36.5782 34.3932 36.8992 34.072C37.2201 33.7508 37.451 33.3508 37.5686 32.9123C37.837 31.9087 37.657 30.6912 37.657 29.6582C37.6574 28.2874 38.2023 26.973 39.1717 26.0038C40.1411 25.0347 41.4558 24.4902 42.8266 24.4902" stroke="white" stroke-width="2" stroke-linecap="round" stroke-linejoin="round"/>
</svg>
