<svg width="80" height="80" viewBox="0 0 80 80" fill="none" xmlns="http://www.w3.org/2000/svg">
<path d="M29.6347 50.4998C29.6347 54.3673 31.6455 57.4998 35.2872 57.4998C38.9289 57.4998 41.8847 54.8748 42.8262 50.4998C43.2794 48.4016 44.2052 47.1346 45.6541 46.1249C49.4236 43.4999 52.2499 39.4609 52.2499 34.7499C52.2499 33.1412 51.933 31.5483 51.3174 30.0621C50.7018 28.5759 49.7994 27.2254 48.6619 26.0879C47.5244 24.9504 46.174 24.0481 44.6878 23.4325C43.2015 22.8169 41.6086 22.5 39.9999 22.5C38.3912 22.5 36.7983 22.8169 35.3121 23.4325C33.8259 24.0481 32.4754 24.9504 31.3379 26.0879C30.2004 27.2254 29.2981 28.5759 28.6825 30.0621C28.0669 31.5483 27.75 33.1412 27.75 34.7499" stroke="white" stroke-width="2" stroke-linecap="round" stroke-linejoin="round"/>
<path d="M34.75 45.2499C37.1737 45.2499 39.139 43.4877 39.139 41.3124C39.139 39.1372 37.1737 37.375 34.75 37.375C34.75 33.8452 35.562 29.5 40.0175 29.5C43.15 29.5 44.9874 31.9045 45.2499 35.0125" stroke="white" stroke-width="2" stroke-linecap="round" stroke-linejoin="round"/>
</svg>
