<svg width="80" height="80" viewBox="0 0 80 80" fill="none" xmlns="http://www.w3.org/2000/svg">
<path d="M25.4531 41.8184H34.544M39.9986 47.273V32.7275H45.4531C46.4175 32.7275 47.3425 33.1107 48.0244 33.7926C48.7064 34.4746 49.0895 35.3995 49.0895 36.3639V38.1821C49.0895 39.1465 48.7064 40.0714 48.0244 40.7534C47.3425 41.4353 46.4175 41.8184 45.4531 41.8184H39.9986M54.544 32.7275V47.273M34.544 47.273V37.273C34.544 36.0675 34.0651 34.9113 33.2127 34.0589C32.3603 33.2064 31.2041 32.7275 29.9986 32.7275C28.7931 32.7275 27.6369 33.2064 26.7845 34.0589C25.932 34.9113 25.4531 36.0675 25.4531 37.273V47.273" stroke="white" stroke-width="2" stroke-linecap="round" stroke-linejoin="round"/>
</svg>
