<svg width="80" height="80" viewBox="0 0 80 80" fill="none" xmlns="http://www.w3.org/2000/svg">
<path d="M33.9359 33.9412C32.3285 33.9412 30.7868 33.3026 29.6502 32.166C28.5136 31.0293 27.875 29.4877 27.875 27.8802C27.875 26.2728 28.5136 24.7312 29.6502 23.5945C30.7868 22.4579 32.3285 21.8193 33.9359 21.8193H39.9959V33.9412M33.9359 33.9412H39.9959M33.9359 33.9412C32.3287 33.9412 30.7873 34.5796 29.6508 35.7161C28.5144 36.8526 27.8759 38.3939 27.8759 40.0012C27.8759 41.6084 28.5144 43.1498 29.6508 44.2862C30.7873 45.4227 32.3287 46.0612 33.9359 46.0612H39.9959V33.9412" stroke="white" stroke-width="2"/>
<path d="M52.1168 40.0013C52.1168 41.6088 51.4783 43.1504 50.3416 44.287C49.205 45.4237 47.6634 46.0622 46.0559 46.0622C44.4485 46.0622 42.9068 45.4237 41.7702 44.287C40.6336 43.1504 39.995 41.6088 39.995 40.0013C39.995 38.3939 40.6336 36.8523 41.7702 35.7156C42.9068 34.579 44.4485 33.9404 46.0559 33.9404C47.6634 33.9404 49.205 34.579 50.3416 35.7156C51.4783 36.8523 52.1168 38.3939 52.1168 40.0013ZM33.935 46.0632H39.995V52.1232C39.9946 53.3216 39.6389 54.4931 38.9728 55.4894C38.3067 56.4857 37.3602 57.2622 36.2528 57.7206C35.1455 58.179 33.927 58.2987 32.7516 58.0647C31.5762 57.8306 30.4966 57.2533 29.6493 56.4058C28.802 55.5582 28.225 54.4784 27.9913 53.3029C27.7576 52.1274 27.8777 50.9091 28.3365 49.8019C28.7952 48.6946 29.5719 47.7483 30.5684 47.0825C31.565 46.4167 32.7365 46.0632 33.935 46.0632Z" stroke="white" stroke-width="2"/>
<path d="M39.9922 21.8193H46.0522C47.6596 21.8193 49.2013 22.4579 50.3379 23.5945C51.4745 24.7312 52.1131 26.2728 52.1131 27.8802C52.1131 29.4877 51.4745 31.0293 50.3379 32.166C49.2013 33.3026 47.6596 33.9412 46.0522 33.9412H39.9922V21.8193Z" stroke="white" stroke-width="2"/>
</svg>
