<svg width="80" height="80" viewBox="0 0 80 80" fill="none" xmlns="http://www.w3.org/2000/svg">
<mask id="mask0_6023_4843" style="mask-type:luminance" maskUnits="userSpaceOnUse" x="18" y="18" width="44" height="44">
<path d="M18.1797 18.1816H61.8161V61.818H18.1797V18.1816Z" fill="white"/>
</mask>
<g mask="url(#mask0_6023_4843)">
<path d="M27.4141 18.1816H29.3813V20.1253H31.1813V18.1816H33.1486V24.0653H31.1813V22.0962H29.3813V24.0653H27.4159L27.4141 18.1816ZM35.7341 20.1325H34.0032V18.1816H39.4341V20.1325H37.7013V24.0653H35.7341V20.1325ZM40.2959 18.1816H42.3468L43.6086 20.2489L44.8686 18.1816H46.9195V24.0653H44.9613V21.1489L43.6086 23.2416H43.5741L42.2195 21.1507V24.0653H40.2959V18.1816ZM47.8977 18.1816H49.8668V22.1216H52.6304V24.0671H47.8977V18.1816Z" fill="white"/>
<path fill-rule="evenodd" clip-rule="evenodd" d="M27.3528 58.3124L23.6328 26.7578H56.3601L52.6383 58.3087L39.9783 61.8178L27.3528 58.3124ZM34.8746 41.0396L34.5219 37.076H49.331L49.6764 33.2069H30.2946L31.3383 44.9105H44.751L44.3019 49.9287L39.9855 51.096H39.9819L35.6728 49.9324L35.3964 46.8469H31.5092L32.051 52.9233L39.9783 55.1233L47.9183 52.9233L48.8855 42.0796L48.9801 41.0414L34.8746 41.0396Z" fill="white"/>
</g>
</svg>
