<svg width="80" height="80" viewBox="0 0 80 80" fill="none" xmlns="http://www.w3.org/2000/svg">
<path d="M39.9979 26.9092C34.1797 26.9092 30.5433 29.8183 29.0888 35.6365C31.2706 32.7274 33.8161 31.6365 36.7251 32.3637C38.3851 32.7783 39.5706 33.9819 40.8851 35.3165C43.0251 37.4874 45.4997 40.0001 50.907 40.0001C56.7251 40.0001 60.3615 37.091 61.8161 31.2728C59.6342 34.1819 57.0888 35.2728 54.1797 34.5455C52.5197 34.131 51.3342 32.9274 50.0197 31.5928C47.8815 29.4219 45.407 26.9092 39.9979 26.9092ZM29.0888 40.0001C23.2706 40.0001 19.6342 42.9092 18.1797 48.7274C20.3615 45.8183 22.907 44.7274 25.8161 45.4546C27.4761 45.8692 28.6615 47.0728 29.9761 48.4074C32.1161 50.5783 34.5906 53.091 39.9979 53.091C45.8161 53.091 49.4524 50.1819 50.907 44.3637C48.7251 47.2728 46.1797 48.3637 43.2706 47.6365C41.6106 47.2219 40.4251 46.0183 39.1106 44.6837C36.9724 42.5128 34.4979 40.0001 29.0888 40.0001Z" fill="white"/>
</svg>
