<svg width="80" height="80" viewBox="0 0 80 80" fill="none" xmlns="http://www.w3.org/2000/svg">
<path fill-rule="evenodd" clip-rule="evenodd" d="M24.6641 26.8438C24.6641 25.6873 25.1235 24.5782 25.9412 23.7605C26.7589 22.9428 27.868 22.4834 29.0244 22.4834H54.6371C55.7936 22.4834 56.9026 22.9428 57.7204 23.7605C58.5381 24.5782 58.9975 25.6873 58.9975 26.8438V43.5243C58.9975 44.6807 58.5381 45.7898 57.7204 46.6075C56.9026 47.4252 55.7936 47.8846 54.6371 47.8846H42.9209V53.9412C42.9209 54.2303 42.806 54.5075 42.6016 54.712C42.3971 54.9164 42.1199 55.0312 41.8308 55.0312C41.5417 55.0312 41.2644 54.9164 41.06 54.712C40.8555 54.5075 40.7407 54.2303 40.7407 53.9412V47.8825H38.8352C38.5461 47.8825 38.2688 47.7676 38.0644 47.5632C37.86 47.3587 37.7451 47.0815 37.7451 46.7924C37.7451 46.5033 37.86 46.226 38.0644 46.0216C38.2688 45.8171 38.5461 45.7023 38.8352 45.7023H54.6371C55.2153 45.7023 55.7699 45.4726 56.1787 45.0637C56.5876 44.6549 56.8173 44.1003 56.8173 43.5221V26.8438C56.8173 26.2655 56.5876 25.711 56.1787 25.3021C55.7699 24.8933 55.2153 24.6636 54.6371 24.6636H29.0244C28.4462 24.6636 27.8917 24.8933 27.4828 25.3021C27.0739 25.711 26.8442 26.2655 26.8442 26.8438V32.2942C26.8442 32.5833 26.7294 32.8606 26.525 33.065C26.3205 33.2694 26.0433 33.3843 25.7542 33.3843C25.465 33.3843 25.1878 33.2694 24.9833 33.065C24.7789 32.8606 24.6641 32.5833 24.6641 32.2942V26.8438Z" fill="white"/>
<path fill-rule="evenodd" clip-rule="evenodd" d="M32.7046 55.3818C32.7046 55.0927 32.8194 54.8154 33.0239 54.611C33.2283 54.4065 33.5056 54.2917 33.7947 54.2917H49.8713C50.1604 54.2917 50.4377 54.4065 50.6421 54.611C50.8465 54.8154 50.9614 55.0927 50.9614 55.3818C50.9614 55.6709 50.8465 55.9482 50.6421 56.1526C50.4377 56.357 50.1604 56.4719 49.8713 56.4719H33.7947C33.5056 56.4719 33.2283 56.357 33.0239 56.1526C32.8194 55.9482 32.7046 55.6709 32.7046 55.3818ZM32.6697 36.5233C31.9881 36.1511 31.2394 35.9179 30.4669 35.8371C29.6945 35.7563 28.9138 35.8296 28.1699 36.0527C27.426 36.2757 26.7337 36.6442 26.1332 37.1366C25.5327 37.6291 25.0359 38.2358 24.6715 38.9217C24.3071 39.6075 24.0824 40.3588 24.0103 41.1321C23.9383 41.9053 24.0204 42.6852 24.2519 43.4265C24.4834 44.1678 24.8597 44.8559 25.3589 45.4508C25.8582 46.0457 26.4705 46.5356 27.1604 46.8922C28.5324 47.5905 30.1237 47.7221 31.5917 47.2585C33.0597 46.7949 34.2869 45.7734 35.009 44.4138C35.7311 43.0542 35.8903 41.4654 35.4524 39.9895C35.0144 38.5137 34.0165 37.2689 32.6697 36.5233ZM22.8044 37.9295C23.53 36.5645 24.6332 35.4372 25.9823 34.6824C27.3313 33.9275 28.8692 33.577 30.4121 33.6727C31.955 33.7683 33.4378 34.3062 34.6832 35.2219C35.9287 36.1377 36.8842 37.3926 37.4356 38.8368C37.987 40.281 38.1109 41.8534 37.7927 43.3661C37.4745 44.8789 36.7274 46.2681 35.6409 47.3677C34.5544 48.4673 33.1742 49.2309 31.6654 49.5672C30.1565 49.9035 28.5828 49.7983 27.1321 49.2642L23.053 56.9384C22.9857 57.0648 22.8942 57.1768 22.7836 57.2678C22.6731 57.3588 22.5457 57.4272 22.4088 57.469C22.1322 57.5534 21.8334 57.5245 21.5781 57.3886C21.3228 57.2528 21.1319 57.021 21.0475 56.7444C20.9631 56.4678 20.992 56.169 21.1279 55.9137L25.2048 48.2395C23.6261 47.1009 22.5131 45.4291 22.0718 43.5333C21.6305 41.6375 21.8908 39.646 22.8044 37.9273" fill="white"/>
</svg>
