<svg width="80" height="80" viewBox="0 0 80 80" fill="none" xmlns="http://www.w3.org/2000/svg">
<path d="M43.1453 32.9563C45.187 35.9167 46.5651 43.5015 46.5651 46.86C46.5651 50.2185 47.392 51.4946 49.8318 51.4946C52.2716 51.4946 53.1393 49.1263 53.1393 46.5129C53.1393 39.2956 46.5345 34.3752 46.5345 32.5479C46.5345 23.8606 44.4928 20.0938 39.9909 20.0938C34.9786 20.0938 34.0293 24.8304 34.0293 31.7006C34.0293 35.1408 29.313 39.3773 28.4453 46.8294" stroke="white" stroke-width="1.5" stroke-linecap="round" stroke-linejoin="round"/>
<path d="M46.599 47.9724C45.0473 49.8303 45.0269 54.9243 45.0269 56.7005C45.0269 58.4768 45.619 59.906 47.436 59.906C50.8252 59.906 51.4479 57.3539 52.5402 56.7414C53.6325 56.1289 56.6235 55.9145 56.6235 53.9341C56.6235 51.9537 53.561 52.6172 53.561 50.3305C53.561 48.0439 53.6937 47.7785 53.0608 47.3191M36.2579 57.2212C36.3117 57.8773 36.1035 58.5281 35.6788 59.0312C35.2541 59.5343 34.6475 59.8488 33.9917 59.906C31.5519 59.906 30.1737 58.0685 29.0406 58.0685C27.9075 58.0685 23.375 58.0174 23.375 56.0268C23.375 55.1999 23.7935 55.006 23.7935 54.0668C23.7935 53.1276 23.375 52.5764 23.375 51.4841C23.375 50.3918 25.4167 49.4424 26.9581 49.5547C26.9581 49.5547 27.0704 46.6045 29.4592 46.6045C31.8479 46.6045 31.654 50.2999 33.1035 51.7699C34.5531 53.2399 36.2579 53.7912 36.2579 57.2212Z" stroke="white" stroke-width="1.5" stroke-linecap="round" stroke-linejoin="round"/>
<path d="M36.1727 56.0478C37.6769 56.5385 39.2789 56.6508 40.8369 56.3748C42.3949 56.0988 43.8608 55.443 45.105 54.4655M35.5602 59.1512C38.7145 58.281 42.0041 58.0109 45.2581 58.3549M30.3438 46.8297C31.2931 42.1747 35.5908 36.8153 35.5908 33.6201" stroke="white" stroke-width="1.5" stroke-linecap="round" stroke-linejoin="round"/>
<path d="M38.9823 28.2295C40.5748 28.2295 44.1988 30.3732 44.1988 31.6289C44.1988 32.8845 39.5131 34.8955 38.6965 34.8955C37.8798 34.8955 34.0312 33.0478 34.0312 31.6901C34.0312 30.3324 37.6042 28.2295 38.9823 28.2295Z" stroke="white" stroke-width="1.5" stroke-linecap="round" stroke-linejoin="round"/>
<path d="M40.1265 28.4544C40.028 28.1444 39.9831 27.8199 39.9938 27.4948C39.9938 26.3923 40.739 25.0244 41.7496 25.0244C42.7603 25.0244 43.3013 26.5659 43.3013 27.7092C43.2866 28.0659 43.1973 28.4156 43.039 28.7356C42.8808 29.0557 42.6571 29.3389 42.3826 29.5671M38.3809 28.3319V27.9236C38.3809 26.8211 37.7174 25.4532 36.819 25.4532C35.9207 25.4532 35.4409 26.9946 35.4409 28.138C35.3915 28.6372 35.5062 29.1389 35.7676 29.5671" stroke="white" stroke-width="1.5" stroke-linecap="round" stroke-linejoin="round"/>
</svg>
