<svg width="80" height="80" viewBox="0 0 80 80" fill="none" xmlns="http://www.w3.org/2000/svg">
<path d="M54.544 25L50.9077 51.3636L39.9986 55L29.0895 51.3636L25.4531 25H54.544Z" stroke="white" stroke-width="2" stroke-linecap="round" stroke-linejoin="round"/>
<path d="M31.8203 32.2725H37.2749V46.8179L33.6385 44.9997M48.1839 32.2725H43.6385C43.3974 32.2725 43.1662 32.3682 42.9957 32.5387C42.8252 32.7092 42.7294 32.9404 42.7294 33.1816V38.6361C42.7294 38.8772 42.8252 39.1084 42.9957 39.2789C43.1662 39.4494 43.3974 39.5452 43.6385 39.5452H46.2258C46.3559 39.5452 46.4845 39.5732 46.6029 39.6272C46.7213 39.6812 46.8267 39.76 46.912 39.8582C46.9973 39.9564 47.0606 40.0719 47.0975 40.1967C47.1343 40.3215 47.144 40.4527 47.1258 40.5816L46.3658 45.9088L42.7294 46.8179" stroke="white" stroke-width="2" stroke-linecap="round" stroke-linejoin="round"/>
</svg>
