<svg width="80" height="80" viewBox="0 0 80 80" fill="none" xmlns="http://www.w3.org/2000/svg">
<path d="M35 42.5C35.663 42.5 36.2987 42.7636 36.7676 43.2324C37.2364 43.7013 37.5 44.337 37.5 45V53.333C37.5 53.996 37.2364 54.6327 36.7676 55.1016C36.2988 55.5702 35.6629 55.833 35 55.833H26.667C26.004 55.833 25.3673 55.5704 24.8984 55.1016C24.4296 54.6327 24.167 53.996 24.167 53.333V45L24.1787 44.7529C24.2355 44.1808 24.4884 43.6426 24.8984 43.2324C25.3673 42.7636 26.0039 42.5 26.667 42.5H35ZM53.333 42.5C53.996 42.5 54.6327 42.7636 55.1016 43.2324C55.5702 43.7012 55.833 44.3371 55.833 45V53.333C55.833 53.996 55.5704 54.6327 55.1016 55.1016C54.6327 55.5704 53.996 55.833 53.333 55.833H45C44.3371 55.833 43.7012 55.5702 43.2324 55.1016C42.7636 54.6327 42.5 53.996 42.5 53.333V45C42.5 44.337 42.7636 43.7013 43.2324 43.2324C43.7013 42.7636 44.337 42.5 45 42.5H53.333ZM35 24.167C35.6629 24.167 36.2988 24.4298 36.7676 24.8984C37.2364 25.3673 37.5 26.004 37.5 26.667V35C37.5 35.663 37.2364 36.2987 36.7676 36.7676C36.2987 37.2364 35.663 37.5 35 37.5H26.667C26.004 37.5 25.3673 37.2364 24.8984 36.7676C24.4298 36.2988 24.167 35.6629 24.167 35V26.667C24.167 26.004 24.4296 25.3673 24.8984 24.8984C25.3673 24.4296 26.004 24.167 26.667 24.167H35ZM49.167 24.167C50.0423 24.167 50.9091 24.3389 51.7178 24.6738C52.5266 25.0089 53.2618 25.5001 53.8809 26.1191C54.4999 26.7382 54.9911 27.4734 55.3262 28.2822C55.6611 29.0909 55.833 29.9577 55.833 30.833C55.833 31.7085 55.6612 32.5759 55.3262 33.3848C54.9911 34.1936 54.4999 34.9288 53.8809 35.5479C53.2618 36.1668 52.5265 36.6572 51.7178 36.9922C50.909 37.3272 50.0424 37.5 49.167 37.5C47.3989 37.5 45.7024 36.7981 44.4521 35.5479C43.2019 34.2976 42.5 32.6011 42.5 30.833C42.5001 29.0651 43.2021 27.3693 44.4521 26.1191C45.7024 24.8689 47.3989 24.167 49.167 24.167Z" stroke="white" stroke-width="1.66667" stroke-linejoin="round"/>
</svg>
