<svg width="80" height="80" viewBox="0 0 80 80" fill="none" xmlns="http://www.w3.org/2000/svg">
<path d="M47.7274 58.2063V52.9881C47.7956 52.1211 47.6785 51.2496 47.3838 50.4314C47.0891 49.6132 46.6237 48.8671 46.0183 48.2427C51.7274 47.6063 57.7274 45.4427 57.7274 35.5154C57.7269 32.9769 56.7505 30.5357 55.0001 28.6972C55.829 26.4763 55.7704 24.0215 54.8365 21.8427C54.8365 21.8427 52.6911 21.2063 47.7274 24.5336C43.5599 23.4059 39.1676 23.4059 35.0001 24.5336C30.0365 21.2063 27.891 21.8427 27.891 21.8427C26.9572 24.0215 26.8986 26.4763 27.7274 28.6972C25.964 30.5494 24.9865 33.0126 25.0001 35.5699C25.0001 45.4245 31.0001 47.5881 36.7092 48.2972C36.111 48.9153 35.6497 49.6525 35.3552 50.4607C35.0608 51.2689 34.9398 52.1301 35.0001 52.9881V58.2063" stroke="white" stroke-width="2" stroke-linecap="round" stroke-linejoin="round"/>
<path d="M35.0007 54.5698C29.5462 56.3389 25.0007 54.5698 22.2734 49.1152" stroke="white" stroke-width="2" stroke-linecap="round" stroke-linejoin="round"/>
</svg>
