<svg width="80" height="80" viewBox="0 0 80 80" fill="none" xmlns="http://www.w3.org/2000/svg">
<path d="M31.4914 36.283C31.4795 36.6665 31.5304 37.0413 31.6442 37.4076C31.7552 37.721 31.8941 38.0238 32.0607 38.316C32.1202 38.4019 32.1532 38.4965 32.1598 38.5996C32.1531 38.6791 32.1265 38.7556 32.0825 38.8222C32.0385 38.8887 31.9785 38.9431 31.908 38.9804L31.0868 39.508C30.9892 39.577 30.8731 39.615 30.7536 39.6171C30.6797 39.6159 30.6068 39.5994 30.5396 39.5687C30.4723 39.538 30.4122 39.4937 30.3629 39.4386C30.1832 39.2642 30.0247 39.0691 29.8909 38.8574C29.7525 38.6135 29.6229 38.3648 29.5021 38.1117C29.0459 38.667 28.4648 39.1133 27.8043 39.4167C27.1439 39.7202 26.4199 39.8729 25.69 39.861C24.7414 39.9106 23.8114 39.5842 23.1017 38.9526C22.7815 38.6382 22.5316 38.2594 22.3685 37.8413C22.2054 37.4232 22.1329 36.9752 22.1557 36.527C22.1398 36.0351 22.235 35.5472 22.4373 35.0989C22.6396 34.6467 22.9431 34.2461 23.3259 33.9248C24.2395 33.2343 25.3676 32.8887 26.5112 32.9489C26.9766 32.9489 27.4401 32.9807 27.9015 33.0441C28.3894 33.1116 28.8754 33.2068 29.3891 33.3159V32.3936C29.4259 32.0334 29.3908 31.6694 29.2859 31.3228C29.1811 30.9763 29.0085 30.6539 28.7782 30.3745C28.1713 29.9223 27.4166 29.7148 26.6639 29.7934C26.1952 29.796 25.7282 29.8506 25.2716 29.956C24.7969 30.0658 24.3341 30.2099 23.8832 30.3884L23.423 30.551H23.2267C23.0323 30.551 22.949 30.4162 22.949 30.1583V29.5355C22.935 29.3858 22.9639 29.2351 23.0323 29.1012C23.1372 28.9853 23.2657 28.8933 23.4092 28.8314C23.9301 28.5855 24.4722 28.3958 25.0355 28.2622C25.6947 28.0948 26.3726 28.0128 27.0526 28.0182C28.2748 27.911 29.4913 28.2797 30.4482 29.0476C30.8369 29.4641 31.1324 29.956 31.3169 30.4895C31.5015 31.0222 31.5705 31.5882 31.5192 32.1496L31.4914 36.283ZM26.2315 38.2069C26.7088 38.2069 27.173 38.1302 27.6238 37.9768C28.0999 37.8181 28.5223 37.5385 28.8476 37.1636C29.0626 36.9403 29.2157 36.6648 29.2919 36.3643C29.3831 36.0033 29.4254 35.6377 29.4188 35.2675V34.6983C29.0098 34.6127 28.5957 34.5531 28.1792 34.5198H26.9554C26.277 34.4662 25.6003 34.6437 25.0355 35.0236C24.8187 35.1978 24.6471 35.4219 24.5356 35.6768C24.424 35.9317 24.3758 36.2097 24.3949 36.4873C24.3721 36.7339 24.4026 36.9825 24.4844 37.2162C24.5662 37.45 24.6973 37.6634 24.8689 37.8419C25.2587 38.1354 25.7472 38.2663 26.2315 38.2069ZM36.6522 39.5615C36.4761 39.5783 36.2995 39.5357 36.1504 39.4405C36.0104 39.3043 35.9139 39.1297 35.8727 38.9388L32.8382 29.1825C32.779 29.0162 32.7423 28.8428 32.7291 28.6668C32.7264 28.4619 32.8282 28.3581 33.0345 28.3554H34.3138C34.4901 28.3393 34.6667 28.3826 34.8156 28.4784C34.9505 28.6172 35.0417 28.7918 35.0794 28.9802L37.2631 37.4076L39.308 28.9941C39.3279 28.8017 39.4175 28.6232 39.5598 28.4923C39.7138 28.3962 39.8948 28.353 40.0755 28.3693H41.1168C41.3019 28.3529 41.4874 28.3959 41.6464 28.4923C41.7762 28.632 41.863 28.8063 41.8963 28.9941L43.9134 37.4076L46.1546 28.9524C46.1913 28.7633 46.2822 28.5889 46.4164 28.4506C46.5655 28.3555 46.7421 28.3129 46.9182 28.3296H48.1281C48.1709 28.3253 48.2143 28.3303 48.255 28.3443C48.2958 28.3584 48.333 28.3811 48.3641 28.411C48.3946 28.4404 48.418 28.4764 48.4324 28.5163C48.4469 28.5562 48.452 28.5989 48.4474 28.641C48.4508 28.7084 48.4508 28.7759 48.4474 28.8433C48.4474 28.8433 48.4474 29.0218 48.3641 29.1567L45.2204 38.909C45.1832 39.0984 45.0915 39.2728 44.9566 39.4108C44.8059 39.502 44.6306 39.5443 44.4548 39.5318H43.3441C43.1616 39.5511 42.9782 39.5032 42.8285 39.3969C42.691 39.2626 42.6029 39.0858 42.5786 38.8951L40.5614 30.7672L38.5582 38.8951C38.5333 39.086 38.4445 39.2629 38.3063 39.3969C38.1551 39.5 37.973 39.5476 37.7907 39.5318L36.6522 39.5615ZM53.3444 39.8868C52.6705 39.8899 51.9985 39.8168 51.3411 39.6686C50.8254 39.5684 50.3252 39.4004 49.8536 39.1688C49.6888 39.0906 49.5488 38.9684 49.449 38.8158C49.3952 38.7016 49.3667 38.5771 49.3657 38.4508V37.8142C49.3657 37.5537 49.4635 37.4228 49.6592 37.4215C49.742 37.4083 49.8264 37.4083 49.9091 37.4215L50.2285 37.5563C50.6754 37.7507 51.1395 37.8955 51.6208 37.9907C52.1285 38.0991 52.6429 38.1533 53.1639 38.1533C53.8223 38.193 54.4788 38.0462 55.056 37.7329C55.2635 37.6091 55.4351 37.4335 55.5538 37.2231C55.6709 37.0151 55.7299 36.7795 55.7244 36.5408C55.7296 36.378 55.7013 36.2158 55.6413 36.0643C55.5812 35.9128 55.4907 35.7753 55.3753 35.6602C54.9969 35.3395 54.5486 35.1119 54.0663 34.9958L52.19 34.4127C51.3768 34.2143 50.6509 33.7681 50.1174 33.1393C49.6978 32.6164 49.4672 31.9672 49.4629 31.2968C49.4562 30.8222 49.5767 30.3544 49.8119 29.9421C50.044 29.5336 50.3613 29.1785 50.7441 28.8989C51.1607 28.5994 51.6327 28.3792 52.1345 28.2483C52.668 28.0976 53.2214 28.0262 53.7767 28.0301C54.0637 28.0103 54.3512 28.0103 54.6395 28.0301L55.4864 28.167L56.2242 28.3693L56.7677 28.5875C56.9131 28.6708 57.0427 28.7746 57.1564 28.8989C57.2358 29.0285 57.2728 29.1686 57.2675 29.3193V29.9144C57.2675 30.1854 57.1703 30.321 56.9759 30.321C56.7998 30.2993 56.6295 30.2441 56.4741 30.1583C55.6831 29.8225 54.8304 29.6563 53.9711 29.6704C53.3755 29.6421 52.7822 29.7635 52.2456 30.0234C52.0486 30.1402 51.8868 30.3081 51.7775 30.5094C51.6679 30.7086 51.6176 30.935 51.6327 31.1619C51.6312 31.3298 51.6652 31.4962 51.7325 31.65C51.7999 31.8038 51.899 31.9417 52.0234 32.0544C52.434 32.3757 52.908 32.6098 53.4138 32.7466L55.2504 33.3159C56.0244 33.5147 56.7217 33.9393 57.2536 34.5356C57.6523 35.0434 57.8625 35.6701 57.8526 36.3108C57.8592 36.8178 57.7443 37.3191 57.5174 37.7725C57.2952 38.2089 56.97 38.5897 56.5713 38.8832C56.1575 39.2089 55.6858 39.4532 55.181 39.6032C54.5727 39.7933 53.9399 39.8935 53.3027 39.9007L53.3444 39.8868ZM20.083 43.8754C20.2595 43.6552 20.5848 43.5957 20.8823 43.7762C26.7593 47.0925 33.3949 48.8301 40.143 48.82C45.1908 48.802 50.1864 47.796 54.8478 45.8588C55.2861 45.6763 55.7244 45.8092 55.9386 46.1107C55.9947 46.1878 56.0337 46.2759 56.0532 46.3693C56.0727 46.4626 56.0722 46.559 56.0517 46.6521C55.9938 46.8699 55.8575 47.0585 55.6689 47.1817L55.6629 47.1857C50.9382 50.3428 45.3791 52.0188 39.6967 51.9993C32.5184 52.0442 25.5765 49.4357 20.204 44.6747C20.0808 44.5731 19.9989 44.4299 19.9739 44.2721C19.9639 44.202 19.9684 44.1306 19.9872 44.0624C20.006 43.9941 20.0386 43.9305 20.083 43.8754Z" fill="white"/>
<path d="M59.8052 42.352C59.6792 42.2242 59.526 42.1266 59.357 42.0664C59.1323 41.9766 58.9 41.9076 58.6628 41.8601C58.012 41.7302 57.3489 41.6717 56.6854 41.6856C55.1899 41.7074 53.4128 42.0486 52.0561 43.0244C51.834 43.1831 51.6694 43.4111 51.709 43.6492C51.7527 43.9189 52.0165 44.03 52.2763 44.03L52.3239 44.024C53.0677 43.9308 54.2379 43.786 55.299 43.7582C55.8345 43.7424 56.3363 43.7582 56.733 43.8257C56.9326 43.8574 57.0986 43.901 57.2308 43.9566C57.3326 43.9913 57.4231 44.053 57.4926 44.1351C57.5375 44.1866 57.5706 44.2818 57.5918 44.4207C57.6089 44.5608 57.6076 44.7327 57.5878 44.9364C57.5481 45.3449 57.4351 45.8428 57.2843 46.3723C57.0523 47.1954 56.7369 48.0721 56.489 48.7683L56.2966 49.3077C56.2453 49.4264 56.2315 49.5579 56.2569 49.6846C56.2697 49.7455 56.2959 49.8027 56.3336 49.8521C56.3714 49.9016 56.4197 49.9419 56.4751 49.9702C56.6953 50.0773 56.967 49.988 57.1792 49.8036C58.4565 48.7127 59.2618 47.0388 59.6783 45.5691C59.8865 44.8352 60.0016 44.141 60.0274 43.5857C60.0406 43.3054 60.0313 43.0621 59.9996 42.8558C59.9826 42.6731 59.9154 42.4987 59.8052 42.352Z" fill="white"/>
</svg>
