<svg width="80" height="80" viewBox="0 0 80 80" fill="none" xmlns="http://www.w3.org/2000/svg">
<path d="M53.9998 34.7499C52.6086 27.7762 46.1476 22.5 38.3899 22.5C29.612 22.5 22.5 29.2462 22.5 37.5674C22.5 41.5661 24.1415 45.1974 26.8207 47.8923C27.4087 48.4873 27.8025 49.2976 27.6432 50.1323C27.3845 51.4897 26.7915 52.7612 25.9177 53.8318C28.2075 54.2467 30.5703 53.8826 32.6289 52.7976C33.3499 52.4161 33.7122 52.2271 33.9659 52.1886C34.1444 52.1606 34.3772 52.1868 34.7499 52.2498" stroke="white" stroke-width="2" stroke-linecap="round" stroke-linejoin="round"/>
<path d="M38.25 47.4584C38.25 52.5422 42.5602 56.6651 47.8749 56.6651C48.5014 56.6651 49.1221 56.608 49.7369 56.4936C50.1797 56.4114 50.4002 56.3694 50.5542 56.3921C50.7082 56.4166 50.9269 56.5321 51.3644 56.7649C52.5999 57.4229 54.0419 57.6556 55.4296 57.3966C54.8986 56.7421 54.539 55.9657 54.3832 55.1374C54.2869 54.6264 54.5249 54.1312 54.8837 53.7689C56.5549 52.0934 57.4954 49.8249 57.4999 47.4584C57.4999 42.373 53.1897 38.25 47.8749 38.25C42.5602 38.25 38.25 42.373 38.25 47.4584Z" stroke="white" stroke-width="2" stroke-linecap="round" stroke-linejoin="round"/>
</svg>
