<svg width="80" height="80" viewBox="0 0 80 80" fill="none" xmlns="http://www.w3.org/2000/svg">
<path d="M41.4528 29.5001C41.7322 28.7083 41.8177 27.861 41.702 27.0294C41.5862 26.1978 41.2728 25.406 40.7878 24.7206C40.3028 24.0352 39.6605 23.4761 38.9148 23.0902C38.1691 22.7043 37.3417 22.5029 36.5021 22.5029C35.6624 22.5029 34.835 22.7043 34.0893 23.0902C33.3436 23.4761 32.7013 24.0352 32.2164 24.7206C31.7314 25.406 31.4179 26.1978 31.3022 27.0294C31.1865 27.861 31.2719 28.7083 31.5514 29.5001C27.5526 29.5141 25.4194 29.6575 24.0404 31.0365C22.6614 32.4155 22.5179 34.5488 22.5039 38.5457C23.2955 38.2673 24.1424 38.1826 24.9735 38.2989C25.8046 38.4152 26.5957 38.729 27.2805 39.214C27.9654 39.6991 28.5239 40.3412 28.9094 41.0866C29.2949 41.8321 29.4961 42.659 29.4961 43.4982C29.4961 44.3374 29.2949 45.1644 28.9094 45.9098C28.5239 46.6552 27.9654 47.2974 27.2805 47.7824C26.5957 48.2675 25.8046 48.5813 24.9735 48.6976C24.1424 48.8138 23.2955 48.7292 22.5039 48.4507C22.5179 52.4477 22.6614 54.5809 24.0404 55.9599C25.4194 57.3389 27.5526 57.4824 31.5496 57.4964C31.2711 56.7047 31.1865 55.8579 31.3027 55.0268C31.419 54.1957 31.7328 53.4046 32.2179 52.7198C32.7029 52.0349 33.3451 51.4764 34.0905 51.0909C34.8359 50.7054 35.6629 50.5042 36.5021 50.5042C37.3413 50.5042 38.1682 50.7054 38.9137 51.0909C39.6591 51.4764 40.3012 52.0349 40.7863 52.7198C41.2713 53.4046 41.5851 54.1957 41.7014 55.0268C41.8177 55.8579 41.733 56.7047 41.4545 57.4964C45.4515 57.4824 47.5848 57.3389 48.9638 55.9599C50.3427 54.5809 50.4862 52.4477 50.5002 48.4489C51.292 48.7284 52.1393 48.8138 52.9709 48.6981C53.8025 48.5824 54.5943 48.2689 55.2797 47.7839C55.9651 47.299 56.5242 46.6567 56.9101 45.911C57.296 45.1653 57.4974 44.3379 57.4974 43.4982C57.4974 42.6586 57.296 41.8312 56.9101 41.0855C56.5242 40.3398 55.9651 39.6975 55.2797 39.2125C54.5943 38.7275 53.8025 38.4141 52.9709 38.2983C52.1393 38.1826 51.292 38.2681 50.5002 38.5475C50.4862 34.5488 50.3427 32.4155 48.9638 31.0365C47.5848 29.6558 45.4515 29.5141 41.4528 29.5001Z" stroke="white" stroke-width="2" stroke-linecap="round" stroke-linejoin="round"/>
</svg>
